<?xml version="1.0" encoding="UTF-8"?>
<svg xmlns="http://www.w3.org/2000/svg" xmlns:xlink="http://www.w3.org/1999/xlink" viewBox="0 0 32 32" width="32px" height="32px">
<g id="surface39608312">
<path fill="000" d="M 16 4.070312 C 11.945312 4.070312 8.359375 4.492188 6.175781 4.816406 C 4.390625 5.082031 2.96875 6.480469 2.644531 8.273438 C 2.363281 9.84375 2.085938 12.132812 2.085938 15.007812 C 2.085938 17.878906 2.363281 20.171875 2.644531 21.738281 C 2.96875 23.53125 4.390625 24.921875 6.175781 25.195312 C 8.367188 25.519531 11.96875 25.941406 16 25.941406 C 20.03125 25.941406 23.625 25.519531 25.816406 25.195312 L 25.824219 25.195312 C 27.609375 24.929688 29.03125 23.53125 29.355469 21.738281 C 29.636719 20.164062 29.914062 17.871094 29.914062 15.007812 C 29.914062 12.132812 29.636719 9.84375 29.347656 8.273438 C 29.03125 6.480469 27.609375 5.082031 25.824219 4.816406 C 23.640625 4.492188 20.054688 4.070312 16 4.070312 Z M 16 6.058594 C 19.914062 6.058594 23.417969 6.464844 25.527344 6.78125 C 26.460938 6.921875 27.214844 7.652344 27.390625 8.621094 C 27.65625 10.089844 27.929688 12.265625 27.929688 15.007812 C 27.929688 17.746094 27.65625 19.921875 27.398438 21.382812 C 27.222656 22.359375 26.46875 23.089844 25.527344 23.230469 C 23.402344 23.539062 19.890625 23.953125 16 23.953125 C 12.109375 23.953125 8.589844 23.539062 6.472656 23.230469 C 5.539062 23.089844 4.777344 22.359375 4.601562 21.382812 C 4.34375 19.914062 4.070312 17.746094 4.070312 15.007812 C 4.070312 12.257812 4.34375 10.089844 4.601562 8.621094 C 4.777344 7.652344 5.53125 6.921875 6.464844 6.789062 L 6.472656 6.789062 C 8.582031 6.472656 12.085938 6.058594 16 6.058594 Z M 12.023438 10.035156 L 12.023438 19.976562 L 21.964844 15.007812 Z M 12.023438 10.035156 "/>
</g>
</svg>
